<svg version="1.2" xmlns="http://www.w3.org/2000/svg" viewBox="0 0 1007 575" width="1007" height="575">
	<title>lotus-flower-svg</title>
	<style>
		.s0 { fill: #a420b0 } 
	</style>
	<g id="Layer">
		<g id="XMLID_1_">
			<g id="Layer">
				<path id="Layer" class="s0" d="m329.5 301.2c0.4 0.3 0.6 0.8 1.3 1.6-7.6-0.8-14.2-3.5-20.8-5.9-21.7-7.6-42.9-16.3-62.2-29.2-22.4-15.2-40.1-34.5-52.5-58.4-15.7-30.4-23-62.7-18.8-97q0.2-1.8 0.3-3.5c0.5-5.8 2.4-7.4 8.1-6.5 9.2 1.6 18.2 3.6 27 7 18.8 7.4 36.7 16.5 52.5 29.4 5.2 4.2 10 9 15 15.5-8.8-3.6-16.2-6.8-23.7-9.8-15.5-6.2-31.6-10.2-48.1-12.9-3.7-0.6-5 0.1-4.8 4.1 1.3 39 14.7 73.2 40.6 102.1 20.3 22.6 45.7 38.7 71.2 54.4 5 3.1 10 6.1 14.9 9.1z"/>
				<path id="Layer" class="s0" d="m247.3 285.1c0.2 0.2 0.2 0.6 0.3 1-1.3 1.3-3.1 0.8-4.6 0.9-20.9 0.3-41.6-0.7-62-6-27-6.9-48.4-31.1-46.5-62.2 0.8-11.9 1.3-23.9 3.3-35.7 0.3-1.6-0.1-3.6 2-4.2 2.2-0.6 3.1 1.2 4.2 2.7q25.4 34.4 53.6 66.5c13.2 15 28.7 26.7 46.6 35.4q1.6 0.7 3.1 1.6z"/>
				<path id="Layer" class="s0" d="m239.3 468.6c1.1 0 2.2 0.3 4.1 0.6-2.9 2.4-5.8 3.2-8.7 3.6-37.1 6.3-74.1 8.6-110.7-3.4-17.8-5.9-33-16.3-48.1-27.2-10.9-7.9-19.9-17.6-27.7-28.4-2.1-2.9-2.3-4.4 1.4-6.2 17.7-8.5 35.9-15.1 55.1-18.9 1.3-0.2 2.9-0.8 3.6 0.7 0.7 1.6-1.1 2.2-2 3-7.5 6.1-15 12.2-22.6 18.2-1.7 1.4-3 2.5-0.4 4.5 26.4 21.1 55.4 36.9 88.9 43.6 22.2 4.4 44.4 8.9 67.1 9.9z"/>
				<path id="Layer" class="s0" d="m458.3 410.2c-3.1 0-4.8-1.4-6.5-2.6-16.2-11.9-34.2-20.7-52.6-28.5-18-7.7-37.1-11.7-56.5-14.1-32.8-4.1-65.7-5.7-98.6-8.2-18.9-1.5-36.7-7.6-54.2-14.8-14-5.7-27-12.9-39.6-21.1-1.3-0.9-3-3.1-4.6-1.8-1.9 1.5-0.3 3.8 0.5 5.5 7.2 16.5 18.1 30.6 27.9 45.5 21.7 32.5 51.5 54.5 88.1 67.4 16 5.6 32.7 7.7 49.5 8.9 13.6 0.9 27.2 2 40.8 1-34.4 9.4-68.8 12.1-104.2 4.6-35.8-7.7-65.5-25.3-90.7-50.7-32.9-33.3-49.4-74.1-50.8-120.9-0.2-6-0.4-12 0.3-18 0.1-0.9 0.5-1.9 1-3.7 5.6 5.9 11.1 11 16.6 16.2 18.6 17.1 40.6 25.5 65.6 27.2 31.5 2.1 63.1 3.9 94.4 8.9 24.4 3.9 48.7 7.5 72.5 14.6 14.6 4.3 27.1 12.8 38.9 21.9 21 16 38.8 35.5 56.2 55.3 1.9 2.2 3.7 4.6 6 7.4z"/>
				<path id="Layer" class="s0" d="m473.7 424.6c-3.1 4-6.4 5.8-9.3 7.9-3 2.2-6 4.4-9.1 6.3-20.8 12.6-41.7 25-63.4 36-13 6.6-26.7 10.2-41.1 11.6-2.5 0.2-4.9 0.5-7.4 0.8-1.1 0.1-2.6-0.1-2.9 1.3-0.3 1.2 0.9 1.7 1.7 2.3 10.6 8.3 22.2 14.4 35.2 18.4 28.9 8.9 52.7-1.7 74.4-19.3 15.1-12.2 26.9-27.6 38-43.5 0.7-0.9 1.4-1.8 2.7-3.6 2.9 16.9-0.7 31.3-9.4 44.4-11.7 17.4-25.3 33-43.7 43.9-13 7.8-27.3 11.2-41.9 13.9-31.2 5.8-59.3-3.5-85.7-19.2-9.5-5.6-17-13.4-22.4-23.1-4.3-7.7-8-15.7-12-23.5-1.8-3.5-0.8-4.9 3-4.9 9.5 0 19 0 28.5-0.3 27.4-0.7 53.7-7.2 79.6-15.5 27.7-8.9 54.5-19.7 80.8-32 1.1-0.4 2.1-0.9 4.4-1.9z"/>
				<path id="Layer" class="s0" d="m728.8 473c1.8 2.5-1 5.4-2.5 7.5-13 18.3-25.6 37.3-45 49.6-19 12-39.9 18.2-62.6 17.3-9.5-0.4-19.1-0.2-28.4-1.9-23.5-4.3-42-17-57.9-34.1-10.2-10.9-17.5-23.5-21.2-38-2.8-10.5-1-20.8 1.1-31.6 2.6 0.9 4.4 2.3 5.2 4.3 6.1 14.2 17.8 23.8 27.9 34.8 17.3 18.8 38.4 26.3 63.7 25 15.8-0.9 31.2-2.7 45.3-10.6 1.3-0.7 3.7-1 3.4-3-0.2-1.8-2.5-1.8-4.1-2.1-31.1-5.7-58.6-19.2-84.3-37.2-11.6-8-22.6-16.5-32.8-26.1-0.8-0.8-2-1.4-1.8-3.7 5.6 2.1 11 3.8 16.3 6 25 10.1 49.4 21.6 74.9 30.6 30.8 10.7 62.3 17.1 95.2 12.6 2.6-0.4 6.2-1.3 7.6 0.6z"/>
				<path id="Layer" class="s0" d="m765.9 470.9c-0.9-0.2-1.8-0.6-2.7-0.9q0-0.7 0-1.4c6.8-0.5 13.5-1 20.3-1.4 29.3-1.6 57.8-7.3 85.5-16.8 15-5.1 27.5-14.9 40.7-23.3 5.8-3.7 10.7-8.5 15.8-13 3-2.7 2.8-4.8-0.3-7.2-7.7-6.1-15.3-12.4-22.9-18.6-1.2-1-2.7-1.8-3.5-3.9 1.8-0.7 3.4-0.1 5 0.4 18.7 5.5 35.6 14.9 53.2 22.9 2.7 1.2 4.1 2.6 1.7 5.6-10.7 13-21.2 26.1-34.2 37-22.4 18.6-48.7 27.1-76.9 28.5-27.5 1.5-55 0.3-81.7-7.9z"/>
				<path id="Layer" class="s0" d="m911.3 251.4c2.4 0.8 1.3 3.8 1.2 5.8-1.8 38.6-11.1 74.9-32.1 107.9-17.1 26.8-38.4 49.5-65.4 66.3-25.2 15.8-52.8 24.7-83 25.8-18.4 0.7-36.5 0-54.5-4.1-0.8-0.2-1.7-0.4-2.4-0.6-0.3-0.1-0.5-0.5-1-1.1 9.7-1 19.2-2.3 28.7-3.1 33.6-2.9 63.7-15.2 90.9-34.5 11.3-7.9 19.9-18.7 28.5-29.3 12-15 21.2-31.9 30.5-48.6 1.9-3.5 4.5-6.7 5.5-10.6 0.3-1 0.7-2.1-0.4-2.7-0.9-0.6-1.4 0.4-2.1 0.8-26.3 17.8-56 26.4-86.7 32.7-30.4 6.3-61 8.3-91.8 9.5-40.4 1.6-77.9 13.1-112.8 33.6-4.1 2.4-8.2 4.7-12.3 7.1q-0.5-0.5-0.9-1c8.1-10.5 16.6-20.7 26.1-30 21.3-20.9 47.3-34.3 73.6-47.2 19.6-9.6 40.8-12.8 62.1-16 31.4-4.7 63.1-4.5 94.6-8.1 16.9-1.9 33.7-4.9 49.2-12 19.3-8.8 36.3-20.9 50.4-36.9 1.3-1.4 2.1-4.5 4.1-3.7z"/>
				<path id="Layer" class="s0" d="m881.6 180.4c0.2 11.4 2.1 22.8 0 34.3-1.4 8-0.5 16.3-1.5 24.4-2.6 19.5-14.5 31.3-31.1 39.8-17.9 9.2-37 9.9-56.4 9.4-9.5-0.2-19 0-28.4-0.1-1.6 0-3.3 0.6-5-0.6 4.4-5.8 11.4-7.2 17.2-10.3 19.9-10.7 38.8-22.6 54.5-39.2 17.1-18.2 32.1-38.1 46.2-58.7 0.8-1.1 1.1-3.3 2.9-2.8 1.7 0.4 1.6 2.4 1.6 3.8z"/>
				<path id="Layer" class="s0" d="m674.8 304.6c9.8-6.3 20.7-10.1 30.4-16.3 21.4-13.8 43.4-26.7 62-44.4 18.2-17.4 31.3-38.5 38.3-62.8 3.6-12.7 5.5-26 5.5-39.4 0-4-1.4-4.9-5.2-5.1-20.5-1.1-39.6 4.3-58.3 11.4-1.5 0.6-2.9 1.8-5 1 7.9-8.7 17.9-13.9 28.1-18.7 18.6-8.9 37.3-17.7 56.7-24.8 1.7-0.6 3.4-1.3 5.2-1.8 7.9-2.3 8-2.3 9.3 6.3 6.9 46.3-4.2 87-36.8 121.4-20 21.1-43.7 36.6-69.6 49.5-19.1 9.6-39 17-59.3 23.6-0.4 0.1-0.9 0-1.3 0.1z"/>
				<path id="Layer" class="s0" d="m616.9 326c-0.4 0.3-0.9 0.6-1.3 0.7-0.3 0.1-0.6-0.1-1.8-0.4 6.9-9.1 13.5-17.9 20.3-26.7 14.6-18.9 28.5-38.2 37.9-60.3 7.3-17.3 11.9-35.4 13.6-54 1.6-17.7-2.6-34.8-10-50.9-8.3-17.7-18-34.5-29.8-50.2-1.9-2.5-4.1-4.8-6.2-7.1-6.6-7.3-6.6-7.4-15.5-2.8-11.7 6.2-23.3 12.8-35.3 20.8 3.2-10.3 8.8-17.8 14.2-25.3 9.8-13.9 19.9-27.5 32.1-39.5 2.4-2.4 4.5-2.6 6.8-0.8 12.2 9.8 25.8 18.2 34.1 32 12.7 21.1 23.8 43 29.5 67.4 3.5 15 5.9 30.1 6.3 45.4 0.4 20.5-4.3 40.1-12.4 58.7-17.4 39.9-45.6 70.4-82.5 93z"/>
				<path id="Layer" class="s0" d="m633.8 205.5c4.5 27.7 0.2 54.9-12.7 80.1-14.8 28.8-32.6 55.8-54 80.1-6.4 7.3-13.8 13.5-21.2 19.7 2.8-5 6.9-9 10.2-13.6 9-12.1 14.8-26 21.8-39.2 14.3-27.1 18.7-56.3 18.1-86.5-0.4-14.1-3.9-27.6-9.7-40.5-9.8-21.8-23.6-40.9-39.4-58.7-10.9-12.3-22.5-24-34.6-35.3-2.8-2.6-4.8-2.7-7.5-0.2-18.3 16.7-37.8 32.3-54.2 50.9-24.8 28.1-39.9 60.7-39.3 98.8 0.4 28.8 8.1 55.7 22.2 81 10.5 18.9 23.3 35.7 37.9 51.3 0.3 0.4 0.6 0.8 0.9 1.2-19.5-13.4-35.2-30.3-48.4-49.7-8.3-12.3-17.7-23.9-24.4-37.1-7-14.1-16.2-27.4-18.7-43.4-3.2-19.9-5.5-40-1.9-60 2.3-13.1 7.7-25.3 14.7-36.5 12-19.5 25.1-38.5 41.9-54.4 16.6-15.6 34.6-29.6 52.6-43.5 5.7-4.4 11.5-8.5 17-13.1 2.3-1.9 3.9-1.8 6.2-0.4 13 7.8 25.4 16.5 37 26.3 17.5 14.9 35.7 29.2 49.5 47.8 16.8 22.6 31.3 46.7 36 74.9z"/>
				<path id="Layer" class="s0" d="m425.3 95c-11-4.1-20.5-10.5-30.5-16-14.3-7.9-10.1-9.1-21.7 3-20.5 21.2-35.3 46.1-44 74.1-12.2 38.7-5.2 75 18 108.1 8.4 12 17.3 23.7 25.2 36 4.6 7.1 10.4 13.5 15.5 20.2 1.1 1.5 2.7 2.9 2.7 5.6-7-3.1-12.4-8.1-18-12.5-21.1-16.9-39.1-36.4-51.8-60.7-7.6-14.7-15-29.2-18-45.7-4.1-23.1-3.1-45.6 2.9-68.2 10.2-37.9 28-71.7 53.5-101.5 3-3.5 6.2-6.9 10-9.7 1.3-0.9 2.1-1.7 3.7-0.2 21 19.7 38.9 41.9 52.5 67.5z"/>
			</g>
			<g id="Layer">
			</g>
		</g>
	</g>
</svg>